<svg width="17" height="17" viewBox="0 0 17 17" fill="none" xmlns="http://www.w3.org/2000/svg">
<path fill-rule="evenodd" clip-rule="evenodd" d="M8.5 1.98706C8.98365 1.98706 9.37572 2.36088 9.37572 2.82202V7.83175H14.6301C15.1137 7.83175 15.5058 8.20557 15.5058 8.66671C15.5058 9.12784 15.1137 9.50166 14.6301 9.50166H9.37572V14.5114C9.37572 14.9725 8.98365 15.3464 8.5 15.3464C8.01635 15.3464 7.62427 14.9725 7.62427 14.5114V9.50166H2.36994C1.88629 9.50166 1.49422 9.12784 1.49422 8.66671C1.49422 8.20557 1.88629 7.83175 2.36994 7.83175H7.62427V2.82202C7.62427 2.36088 8.01635 1.98706 8.5 1.98706Z" fill="#0B1E43"/>
</svg>
