<svg width="17" height="17" viewBox="0 0 17 17" fill="none" xmlns="http://www.w3.org/2000/svg">
<path fill-rule="evenodd" clip-rule="evenodd" d="M8.50001 2.66675C8.91422 2.66675 9.25001 3.00253 9.25001 3.41675V7.91675H13.75C14.1642 7.91675 14.5 8.25254 14.5 8.66675C14.5 9.08096 14.1642 9.41675 13.75 9.41675H9.25001V13.9167C9.25001 14.331 8.91422 14.6667 8.50001 14.6667C8.08579 14.6667 7.75001 14.331 7.75001 13.9167V9.41675H3.25002C2.8358 9.41675 2.50002 9.08096 2.50002 8.66675C2.50002 8.25254 2.8358 7.91675 3.25002 7.91675H7.75001V3.41675C7.75001 3.00253 8.08579 2.66675 8.50001 2.66675Z" fill="#0B1E43"/>
</svg>
