<svg width="17" height="17" viewBox="0 0 17 17" fill="none" xmlns="http://www.w3.org/2000/svg">
<path fill-rule="evenodd" clip-rule="evenodd" d="M2.89052 7.7239C3.14057 7.47385 3.47971 7.33337 3.83333 7.33337C4.18696 7.33337 4.52609 7.47385 4.77614 7.7239C5.02619 7.97395 5.16667 8.31308 5.16667 8.66671C5.16667 9.02033 5.02619 9.35947 4.77614 9.60952C4.52609 9.85956 4.18696 10 3.83333 10C3.47971 10 3.14057 9.85956 2.89052 9.60952C2.64048 9.35947 2.5 9.02033 2.5 8.66671C2.5 8.31308 2.64048 7.97395 2.89052 7.7239ZM7.55719 7.7239C7.80724 7.47385 8.14638 7.33337 8.5 7.33337C8.85362 7.33337 9.19276 7.47385 9.44281 7.7239C9.69286 7.97395 9.83333 8.31308 9.83333 8.66671C9.83333 9.02033 9.69286 9.35947 9.44281 9.60952C9.19276 9.85956 8.85362 10 8.5 10C8.14638 10 7.80724 9.85956 7.55719 9.60952C7.30714 9.35947 7.16667 9.02033 7.16667 8.66671C7.16667 8.31308 7.30714 7.97395 7.55719 7.7239ZM12.2239 7.7239C12.4739 7.47385 12.813 7.33337 13.1667 7.33337C13.5203 7.33337 13.8594 7.47385 14.1095 7.7239C14.3595 7.97395 14.5 8.31309 14.5 8.66671C14.5 9.02033 14.3595 9.35947 14.1095 9.60952C13.8594 9.85957 13.5203 10 13.1667 10C12.813 10 12.4739 9.85957 12.2239 9.60952C11.9738 9.35947 11.8333 9.02033 11.8333 8.66671C11.8333 8.31309 11.9738 7.97395 12.2239 7.7239Z" fill="#0B1E43"/>
</svg>
