<svg width="17" height="17" viewBox="0 0 17 17" fill="none" xmlns="http://www.w3.org/2000/svg">
<path d="M14.7333 8.06679H8.62V9.88679H12.96C12.74 12.4268 10.6267 13.5135 8.62667 13.5135C6.07333 13.5135 3.83333 11.5001 3.83333 8.66679C3.83333 5.93346 5.96667 3.82012 8.63333 3.82012C10.6933 3.82012 11.9 5.13346 11.9 5.13346L13.1667 3.81346C13.1667 3.81346 11.54 2.00012 8.56667 2.00012C4.78 2.00012 1.85333 5.20012 1.85333 8.66679C1.85333 12.0335 4.60667 15.3335 8.66667 15.3335C12.2333 15.3335 14.8333 12.8868 14.8333 9.27345C14.8333 8.50679 14.7333 8.06679 14.7333 8.06679Z" fill="#0B1E43"/>
</svg>
