<svg width="17" height="17" viewBox="0 0 17 17" fill="none" xmlns="http://www.w3.org/2000/svg">
<path d="M5.5 4.40012L3.83333 5.33346L4.76667 3.66679L3.83333 2.00012L5.5 2.93346L7.16667 2.00012L6.23333 3.66679L7.16667 5.33346L5.5 4.40012ZM13.5 10.9335L15.1667 10.0001L14.2333 11.6668L15.1667 13.3335L13.5 12.4001L11.8333 13.3335L12.7667 11.6668L11.8333 10.0001L13.5 10.9335ZM15.1667 2.00012L14.2333 3.66679L15.1667 5.33346L13.5 4.40012L11.8333 5.33346L12.7667 3.66679L11.8333 2.00012L13.5 2.93346L15.1667 2.00012ZM9.39333 9.18679L11.02 7.56012L9.60667 6.14679L7.98 7.77346L9.39333 9.18679ZM10.08 5.52679L11.64 7.08679C11.9 7.33346 11.9 7.76679 11.64 8.02679L3.86 15.8068C3.6 16.0668 3.16667 16.0668 2.92 15.8068L1.36 14.2468C1.1 14.0001 1.1 13.5668 1.36 13.3068L9.14 5.52679C9.4 5.26679 9.83333 5.26679 10.08 5.52679Z" fill="#0B1E43"/>
</svg>
