<svg width="17" height="17" viewBox="0 0 17 17" fill="none" xmlns="http://www.w3.org/2000/svg">
<path d="M6.44286 0.666748C8.019 0.666748 9.53059 1.29287 10.6451 2.40737C11.7596 3.52187 12.3857 5.03346 12.3857 6.60961C12.3857 8.08161 11.8463 9.43475 10.9594 10.477L11.2063 10.7239H11.9286L16.5 15.2953L15.1286 16.6667L10.5571 12.0953V11.373L10.3103 11.1262C9.23176 12.0464 7.86059 12.5521 6.44286 12.5525C4.86671 12.5525 3.35512 11.9263 2.24062 10.8118C1.12612 9.69734 0.5 8.18575 0.5 6.60961C0.5 5.03346 1.12612 3.52187 2.24062 2.40737C3.35512 1.29287 4.86671 0.666748 6.44286 0.666748ZM6.44286 2.49532C4.15714 2.49532 2.32857 4.32389 2.32857 6.60961C2.32857 8.89532 4.15714 10.7239 6.44286 10.7239C8.72857 10.7239 10.5571 8.89532 10.5571 6.60961C10.5571 4.32389 8.72857 2.49532 6.44286 2.49532Z" fill="#0B1E43"/>
</svg>
